# 3ds Max Wavefront OBJ Exporter v0.97b - (c)2007 guruware
# File Created: 08.10.2018 00:37:47

#
# object Silver_Vinyl
#

v  1.5663 0.6626 -1.5663
v  25.9927 0.6626 -1.5663
v  25.9927 0.6626 -31.9591
v  1.5663 0.6626 -31.9591
v  0.0000 0.0000 -0.0000
v  27.5590 0.0000 -0.0000
v  27.5590 1.3698 -0.0000
v  0.0000 1.3698 -0.0000
v  27.5590 0.0000 -33.5254
v  27.5590 1.3698 -33.5254
v  0.0000 0.0000 -33.5254
v  0.0000 1.3698 -33.5254
v  0.2362 1.7038 -0.2362
v  27.3228 1.7038 -0.2362
v  26.2289 1.7038 -1.3301
v  1.3301 1.7038 -1.3301
v  27.3228 1.7038 -33.2892
v  26.2289 1.7038 -32.1953
v  0.2362 1.7038 -33.2892
v  1.3301 1.7038 -32.1953
v  1.5663 1.3698 -1.5663
v  25.9927 1.3698 -1.5663
v  25.9927 1.3698 -31.9591
v  1.5663 1.3698 -31.9591
v  27.4699 1.5777 -0.0891
v  0.0891 1.5777 -0.0891
v  27.4699 1.5777 -33.4363
v  0.0891 1.5777 -33.4363
v  26.0819 1.5777 -1.4771
v  1.4771 1.5777 -1.4771
v  26.0819 1.5777 -32.0483
v  1.4771 1.5777 -32.0483
v  22.7974 0.6085 -20.5491
v  22.6976 0.6085 -21.8812
v  22.6976 0.9129 -21.8812
v  22.7974 0.9129 -20.5491
v  22.4003 0.6085 -23.1835
v  22.4003 0.9129 -23.1835
v  21.9123 0.6085 -24.4269
v  21.9123 0.9129 -24.4269
v  21.2444 0.6085 -25.5838
v  21.2444 0.9129 -25.5838
v  20.4115 0.6085 -26.6282
v  20.4115 0.9129 -26.6282
v  19.4323 0.6085 -27.5367
v  19.4323 0.9129 -27.5367
v  18.3286 0.6085 -28.2892
v  18.3286 0.9129 -28.2892
v  17.1251 0.6085 -28.8688
v  17.1251 0.9129 -28.8688
v  15.8486 0.6085 -29.2626
v  15.8486 0.9129 -29.2626
v  14.5277 0.6085 -29.4616
v  14.5277 0.9129 -29.4616
v  13.1919 0.6085 -29.4616
v  13.1919 0.9129 -29.4616
v  11.8710 0.6085 -29.2626
v  11.8710 0.9129 -29.2626
v  10.5946 0.6085 -28.8688
v  10.5946 0.9129 -28.8688
v  9.3910 0.6085 -28.2892
v  9.3910 0.9129 -28.2892
v  8.2873 0.6085 -27.5367
v  8.2873 0.9129 -27.5367
v  7.3081 0.6085 -26.6282
v  7.3081 0.9129 -26.6282
v  6.4753 0.6085 -25.5838
v  6.4753 0.9129 -25.5838
v  5.8073 0.6085 -24.4269
v  5.8073 0.9129 -24.4269
v  5.3193 0.6085 -23.1835
v  5.3193 0.9129 -23.1835
v  5.0221 0.6085 -21.8812
v  5.0221 0.9129 -21.8812
v  4.9223 0.6085 -20.5491
v  4.9223 0.9129 -20.5491
v  5.0221 0.6085 -19.2170
v  5.0221 0.9129 -19.2170
v  5.3193 0.6085 -17.9147
v  5.3193 0.9129 -17.9147
v  5.8073 0.6085 -16.6712
v  5.8073 0.9129 -16.6712
v  6.4752 0.6085 -15.5144
v  6.4752 0.9129 -15.5144
v  7.3081 0.6085 -14.4700
v  7.3081 0.9129 -14.4700
v  8.2873 0.6085 -13.5614
v  8.2873 0.9129 -13.5614
v  9.3910 0.6085 -12.8089
v  9.3910 0.9129 -12.8089
v  10.5945 0.6085 -12.2293
v  10.5945 0.9129 -12.2293
v  11.8710 0.6085 -11.8356
v  11.8710 0.9129 -11.8356
v  13.1919 0.6085 -11.6365
v  13.1919 0.9129 -11.6365
v  14.5277 0.6085 -11.6365
v  14.5277 0.9129 -11.6365
v  15.8486 0.6085 -11.8356
v  15.8486 0.9129 -11.8356
v  17.1251 0.6085 -12.2293
v  17.1251 0.9129 -12.2293
v  18.3286 0.6085 -12.8089
v  18.3286 0.9129 -12.8089
v  19.4323 0.6085 -13.5614
v  19.4323 0.9129 -13.5614
v  20.4115 0.6085 -14.4700
v  20.4115 0.9129 -14.4700
v  21.2444 0.6085 -15.5143
v  21.2444 0.9129 -15.5143
v  21.9123 0.6085 -16.6712
v  21.9123 0.9129 -16.6712
v  22.4003 0.6085 -17.9147
v  22.4003 0.9129 -17.9147
v  22.6976 0.6085 -19.2170
v  22.6976 0.9129 -19.2170
v  13.8598 0.9129 -20.5491
v  14.1098 0.8658 -4.9142
v  23.8055 0.8658 -4.9142
v  23.8055 0.8658 -8.0830
v  14.1098 0.8658 -8.0830
v  13.8399 0.6474 -4.6447
v  24.0754 0.6474 -4.6447
v  24.0754 0.6474 -8.3526
v  13.8399 0.6474 -8.3526
v  3.6657 0.8658 -3.8346
v  11.1863 0.8658 -3.8346
v  11.1863 0.8658 -8.9211
v  3.6657 0.8658 -8.9211
v  3.3382 0.6474 -3.5397
v  11.5137 0.6474 -3.5397
v  11.5137 0.6474 -9.2160
v  3.3382 0.6474 -9.2160
v  13.8598 0.6085 -20.5491
# 134 vertices

vn 0.0000 1.0000 -0.0000
vn 0.0000 0.0000 1.0000
vn 0.0000 0.1737 0.9848
vn 1.0000 0.0000 -0.0000
vn 0.9848 0.1737 -0.0000
vn 0.0000 0.0000 -1.0000
vn 0.0000 0.1737 -0.9848
vn -1.0000 0.0000 -0.0000
vn -0.9848 0.1737 -0.0000
vn 0.0000 0.8632 0.5048
vn 0.0000 0.9813 -0.1927
vn 0.5048 0.8632 -0.0000
vn -0.1927 0.9813 -0.0000
vn 0.0000 0.8632 -0.5048
vn 0.0000 0.9813 0.1927
vn -0.5048 0.8632 -0.0000
vn 0.1927 0.9813 -0.0000
vn 0.0000 0.2227 -0.9749
vn -0.9749 0.2227 -0.0000
vn 0.0000 0.2227 0.9749
vn 0.9749 0.2227 -0.0000
vn 0.0000 0.5232 0.8522
vn 0.8522 0.5232 -0.0000
vn 0.0000 0.5232 -0.8522
vn -0.8522 0.5232 -0.0000
vn 0.0000 0.6466 -0.7628
vn -0.7628 0.6466 -0.0000
vn 0.0000 0.6466 0.7628
vn 0.7628 0.6466 -0.0000
vn 0.9888 0.0000 -0.1491
vn 0.9556 0.0000 -0.2948
vn 0.9010 0.0000 -0.4339
vn 0.8262 0.0000 -0.5633
vn 0.7330 0.0000 -0.6802
vn 0.6235 0.0000 -0.7818
vn 0.5000 0.0000 -0.8660
vn 0.3654 0.0000 -0.9309
vn 0.2225 0.0000 -0.9749
vn 0.0747 0.0000 -0.9972
vn -0.0747 0.0000 -0.9972
vn -0.2225 0.0000 -0.9749
vn -0.3654 0.0000 -0.9309
vn -0.5000 0.0000 -0.8660
vn -0.6235 0.0000 -0.7818
vn -0.7331 0.0000 -0.6802
vn -0.8262 0.0000 -0.5633
vn -0.9010 0.0000 -0.4339
vn -0.9556 0.0000 -0.2947
vn -0.9888 0.0000 -0.1490
vn -0.9888 0.0000 0.1490
vn -0.9556 0.0000 0.2947
vn -0.9010 0.0000 0.4339
vn -0.8262 0.0000 0.5633
vn -0.7331 0.0000 0.6802
vn -0.6235 0.0000 0.7818
vn -0.5000 0.0000 0.8660
vn -0.3653 0.0000 0.9309
vn -0.2225 0.0000 0.9749
vn -0.0747 0.0000 0.9972
vn 0.0747 0.0000 0.9972
vn 0.2225 0.0000 0.9749
vn 0.3653 0.0000 0.9309
vn 0.5000 0.0000 0.8660
vn 0.6235 0.0000 0.7818
vn 0.7330 0.0000 0.6802
vn 0.8262 0.0000 0.5633
vn 0.9010 0.0000 0.4339
vn 0.9556 0.0000 0.2948
vn 0.9888 0.0000 0.1491
vn 0.0000 0.7769 0.6296
vn 0.6290 0.7774 -0.0000
vn 0.0000 0.7770 -0.6295
vn -0.6290 0.7774 -0.0000
vn 0.0000 0.8036 0.5951
vn 0.5549 0.8319 -0.0000
vn 0.0000 0.8036 -0.5951
vn -0.5548 0.8320 -0.0000
vn 0.0000 -1.0000 -0.0000
# 78 vertex normals

vt 0.5255 0.6520 0.0000
vt 0.0076 0.6520 0.0000
vt 0.0076 0.0076 0.0000
vt 0.5255 0.0076 0.0000
vt 0.9432 0.3964 0.0000
vt 0.9432 0.9942 0.0000
vt 0.9135 0.9942 0.0000
vt 0.9135 0.3964 0.0000
vt 0.7314 0.9955 0.0000
vt 0.0039 0.9955 0.0000
vt 0.0039 0.9658 0.0000
vt 0.7314 0.9658 0.0000
vt 0.7619 0.9931 0.0000
vt 0.7619 0.4312 0.0000
vt 0.7898 0.4312 0.0000
vt 0.7898 0.9931 0.0000
vt 0.7351 0.9044 0.0000
vt 0.0055 0.9044 0.0000
vt 0.0055 0.8746 0.0000
vt 0.7351 0.8746 0.0000
vt 0.9044 0.4015 0.0000
vt 0.9044 0.9891 0.0000
vt 0.8807 0.9654 0.0000
vt 0.8807 0.4252 0.0000
vt 0.7263 0.9567 0.0000
vt 0.0090 0.9567 0.0000
vt 0.0328 0.9329 0.0000
vt 0.7025 0.9329 0.0000
vt 0.7984 0.9883 0.0000
vt 0.7984 0.4360 0.0000
vt 0.8207 0.4583 0.0000
vt 0.8207 0.9660 0.0000
vt 0.7300 0.8655 0.0000
vt 0.0106 0.8655 0.0000
vt 0.0344 0.8417 0.0000
vt 0.7061 0.8417 0.0000
vt 0.8716 0.4304 0.0000
vt 0.8716 0.9602 0.0000
vt 0.8562 0.9602 0.0000
vt 0.8562 0.4304 0.0000
vt 0.6974 0.9238 0.0000
vt 0.0379 0.9238 0.0000
vt 0.0379 0.9085 0.0000
vt 0.6974 0.9085 0.0000
vt 0.8292 0.9612 0.0000
vt 0.8292 0.4631 0.0000
vt 0.8437 0.4631 0.0000
vt 0.8437 0.9612 0.0000
vt 0.7010 0.8325 0.0000
vt 0.0396 0.8325 0.0000
vt 0.0396 0.8171 0.0000
vt 0.7010 0.8171 0.0000
vt 0.9086 0.9923 0.0000
vt 0.9086 0.3983 0.0000
vt 0.0059 0.9609 0.0000
vt 0.7295 0.9609 0.0000
vt 0.7944 0.4330 0.0000
vt 0.7944 0.9913 0.0000
vt 0.0074 0.8697 0.0000
vt 0.7332 0.8697 0.0000
vt 0.8765 0.9622 0.0000
vt 0.8765 0.4284 0.0000
vt 0.0360 0.9287 0.0000
vt 0.6993 0.9287 0.0000
vt 0.8246 0.4613 0.0000
vt 0.8246 0.9630 0.0000
vt 0.0376 0.8374 0.0000
vt 0.7029 0.8374 0.0000
vt 0.9542 0.3465 0.0000
vt 0.9542 0.2935 0.0000
vt 0.9663 0.2935 0.0000
vt 0.9663 0.3465 0.0000
vt 0.9542 0.2411 0.0000
vt 0.9663 0.2411 0.0000
vt 0.9542 0.1905 0.0000
vt 0.9663 0.1905 0.0000
vt 0.9542 0.1427 0.0000
vt 0.9663 0.1427 0.0000
vt 0.9542 0.0989 0.0000
vt 0.9663 0.0989 0.0000
vt 0.9551 0.0601 0.0000
vt 0.9672 0.0601 0.0000
vt 0.9551 0.0073 0.0000
vt 0.9671 0.0073 0.0000
vt 0.9807 0.9893 0.0000
vt 0.9807 0.9383 0.0000
vt 0.9924 0.9383 0.0000
vt 0.9924 0.9893 0.0000
vt 0.9807 0.8890 0.0000
vt 0.9924 0.8890 0.0000
vt 0.9807 0.8425 0.0000
vt 0.9924 0.8425 0.0000
vt 0.9807 0.7999 0.0000
vt 0.9924 0.7999 0.0000
vt 0.9807 0.7621 0.0000
vt 0.9924 0.7621 0.0000
vt 0.9807 0.7106 0.0000
vt 0.9924 0.7106 0.0000
vt 0.9807 0.6597 0.0000
vt 0.9924 0.6597 0.0000
vt 0.9807 0.6104 0.0000
vt 0.9924 0.6104 0.0000
vt 0.9807 0.5640 0.0000
vt 0.9924 0.5640 0.0000
vt 0.9807 0.5214 0.0000
vt 0.9924 0.5214 0.0000
vt 0.9807 0.4837 0.0000
vt 0.9924 0.4837 0.0000
vt 0.9807 0.4322 0.0000
vt 0.9924 0.4322 0.0000
vt 0.9807 0.3813 0.0000
vt 0.9924 0.3813 0.0000
vt 0.9807 0.3322 0.0000
vt 0.9924 0.3322 0.0000
vt 0.9807 0.2858 0.0000
vt 0.9924 0.2858 0.0000
vt 0.9807 0.2433 0.0000
vt 0.9924 0.2433 0.0000
vt 0.9807 0.2056 0.0000
vt 0.9924 0.2056 0.0000
vt 0.9807 0.1543 0.0000
vt 0.9924 0.1543 0.0000
vt 0.9807 0.1035 0.0000
vt 0.9924 0.1035 0.0000
vt 0.9807 0.0545 0.0000
vt 0.9924 0.0545 0.0000
vt 0.9807 0.0083 0.0000
vt 0.9924 0.0083 0.0000
vt 0.9542 0.9947 0.0000
vt 0.9542 0.9514 0.0000
vt 0.9662 0.9514 0.0000
vt 0.9662 0.9947 0.0000
vt 0.9543 0.9130 0.0000
vt 0.9662 0.9130 0.0000
vt 0.9543 0.8609 0.0000
vt 0.9662 0.8609 0.0000
vt 0.9543 0.8093 0.0000
vt 0.9662 0.8093 0.0000
vt 0.9543 0.7596 0.0000
vt 0.9662 0.7596 0.0000
vt 0.9543 0.7126 0.0000
vt 0.9662 0.7126 0.0000
vt 0.9543 0.6695 0.0000
vt 0.9662 0.6695 0.0000
vt 0.9543 0.6313 0.0000
vt 0.9661 0.6313 0.0000
vt 0.9543 0.5798 0.0000
vt 0.9662 0.5798 0.0000
vt 0.9542 0.5410 0.0000
vt 0.9663 0.5410 0.0000
vt 0.9542 0.4972 0.0000
vt 0.9663 0.4972 0.0000
vt 0.9542 0.4495 0.0000
vt 0.9663 0.4495 0.0000
vt 0.9542 0.3989 0.0000
vt 0.9663 0.3989 0.0000
vt 0.9446 0.1975 0.0000
vt 0.9446 0.2280 0.0000
vt 0.7412 0.2127 0.0000
vt 0.9400 0.2581 0.0000
vt 0.9310 0.2873 0.0000
vt 0.9178 0.3147 0.0000
vt 0.9006 0.3399 0.0000
vt 0.8799 0.3623 0.0000
vt 0.8561 0.3813 0.0000
vt 0.8297 0.3965 0.0000
vt 0.8013 0.4077 0.0000
vt 0.7715 0.4144 0.0000
vt 0.7411 0.4167 0.0000
vt 0.7107 0.4144 0.0000
vt 0.6810 0.4077 0.0000
vt 0.6526 0.3965 0.0000
vt 0.6262 0.3813 0.0000
vt 0.6024 0.3623 0.0000
vt 0.5817 0.3399 0.0000
vt 0.5645 0.3147 0.0000
vt 0.5513 0.2873 0.0000
vt 0.5423 0.2581 0.0000
vt 0.5377 0.2280 0.0000
vt 0.5377 0.1975 0.0000
vt 0.5423 0.1674 0.0000
vt 0.5513 0.1382 0.0000
vt 0.5645 0.1108 0.0000
vt 0.5817 0.0856 0.0000
vt 0.6024 0.0632 0.0000
vt 0.6262 0.0442 0.0000
vt 0.6526 0.0290 0.0000
vt 0.6810 0.0178 0.0000
vt 0.7107 0.0110 0.0000
vt 0.7411 0.0088 0.0000
vt 0.7715 0.0110 0.0000
vt 0.8013 0.0178 0.0000
vt 0.8297 0.0290 0.0000
vt 0.8561 0.0442 0.0000
vt 0.8799 0.0632 0.0000
vt 0.9006 0.0856 0.0000
vt 0.9178 0.1108 0.0000
vt 0.9310 0.1382 0.0000
vt 0.9400 0.1674 0.0000
vt 0.2407 0.6645 0.0000
vt 0.5051 0.6645 0.0000
vt 0.5051 0.7509 0.0000
vt 0.2407 0.7509 0.0000
vt 0.2333 0.6571 0.0000
vt 0.5124 0.6571 0.0000
vt 0.5124 0.7582 0.0000
vt 0.2333 0.7582 0.0000
vt 0.0151 0.6656 0.0000
vt 0.2188 0.6656 0.0000
vt 0.2188 0.8033 0.0000
vt 0.0151 0.8033 0.0000
vt 0.0063 0.6576 0.0000
vt 0.2276 0.6576 0.0000
vt 0.2276 0.8113 0.0000
vt 0.0063 0.8113 0.0000
vt 0.5181 0.6414 0.0000
vt 0.0160 0.6414 0.0000
vt 0.0160 0.0306 0.0000
vt 0.5181 0.0306 0.0000
# 219 texture coords

g Silver_Vinyl
s 128
f 1/1/1 2/2/1 3/3/1 4/4/1 
s 4
f 5/5/2 6/6/2 7/7/3 8/8/3 
s 2
f 6/9/4 9/10/4 10/11/5 7/12/5 
s 4
f 9/13/6 11/14/6 12/15/7 10/16/7 
s 2
f 11/17/8 5/18/8 8/19/9 12/20/9 
s 4
f 13/21/10 14/22/10 15/23/11 16/24/11 
s 2
f 14/25/12 17/26/12 18/27/13 15/28/13 
s 4
f 17/29/14 19/30/14 20/31/15 18/32/15 
s 2
f 19/33/16 13/34/16 16/35/17 20/36/17 
s 4
f 21/37/18 22/38/18 2/39/6 1/40/6 
s 2
f 22/41/19 23/42/19 3/43/8 2/44/8 
s 4
f 23/45/20 24/46/20 4/47/2 3/48/2 
s 2
f 24/49/21 21/50/21 1/51/4 4/52/4 
s 4
f 8/8/3 7/7/3 25/53/22 26/54/22 
s 2
f 7/12/5 10/11/5 27/55/23 25/56/23 
s 4
f 10/16/7 12/15/7 28/57/24 27/58/24 
s 2
f 12/20/9 8/19/9 26/59/25 28/60/25 
s 4
f 14/22/10 13/21/10 26/54/22 25/53/22 
f 16/24/11 15/23/11 29/61/26 30/62/26 
s 2
f 17/26/12 14/25/12 25/56/23 27/55/23 
f 15/28/13 18/27/13 31/63/27 29/64/27 
s 4
f 19/30/14 17/29/14 27/58/24 28/57/24 
f 18/32/15 20/31/15 32/65/28 31/66/28 
s 2
f 13/34/16 19/33/16 28/60/25 26/59/25 
f 20/36/17 16/35/17 30/67/29 32/68/29 
s 4
f 22/38/18 21/37/18 30/62/26 29/61/26 
s 2
f 23/42/19 22/41/19 29/64/27 31/63/27 
s 4
f 24/46/20 23/45/20 31/66/28 32/65/28 
s 2
f 21/50/21 24/49/21 32/68/29 30/67/29 
s 1
f 33/69/4 34/70/30 35/71/30 36/72/4 
f 34/70/30 37/73/31 38/74/31 35/71/30 
f 37/73/31 39/75/32 40/76/32 38/74/31 
f 39/75/32 41/77/33 42/78/33 40/76/32 
f 41/77/33 43/79/34 44/80/34 42/78/33 
f 43/79/34 45/81/35 46/82/35 44/80/34 
f 45/81/35 47/83/36 48/84/36 46/82/35 
f 47/85/36 49/86/37 50/87/37 48/88/36 
f 49/86/37 51/89/38 52/90/38 50/87/37 
f 51/89/38 53/91/39 54/92/39 52/90/38 
f 53/91/39 55/93/40 56/94/40 54/92/39 
f 55/93/40 57/95/41 58/96/41 56/94/40 
f 57/95/41 59/97/42 60/98/42 58/96/41 
f 59/97/42 61/99/43 62/100/43 60/98/42 
f 61/99/43 63/101/44 64/102/44 62/100/43 
f 63/101/44 65/103/45 66/104/45 64/102/44 
f 65/103/45 67/105/46 68/106/46 66/104/45 
f 67/105/46 69/107/47 70/108/47 68/106/46 
f 69/107/47 71/109/48 72/110/48 70/108/47 
f 71/109/48 73/111/49 74/112/49 72/110/48 
f 73/111/49 75/113/8 76/114/8 74/112/49 
f 75/113/8 77/115/50 78/116/50 76/114/8 
f 77/115/50 79/117/51 80/118/51 78/116/50 
f 79/117/51 81/119/52 82/120/52 80/118/51 
f 81/119/52 83/121/53 84/122/53 82/120/52 
f 83/121/53 85/123/54 86/124/54 84/122/53 
f 85/123/54 87/125/55 88/126/55 86/124/54 
f 87/125/55 89/127/56 90/128/56 88/126/55 
f 89/129/56 91/130/57 92/131/57 90/132/56 
f 91/130/57 93/133/58 94/134/58 92/131/57 
f 93/133/58 95/135/59 96/136/59 94/134/58 
f 95/135/59 97/137/60 98/138/60 96/136/59 
f 97/137/60 99/139/61 100/140/61 98/138/60 
f 99/139/61 101/141/62 102/142/62 100/140/61 
f 101/141/62 103/143/63 104/144/63 102/142/62 
f 103/143/63 105/145/64 106/146/64 104/144/63 
f 105/145/64 107/147/65 108/148/65 106/146/64 
f 107/147/65 109/149/66 110/150/66 108/148/65 
f 109/149/66 111/151/67 112/152/67 110/150/66 
f 111/151/67 113/153/68 114/154/68 112/152/67 
f 113/153/68 115/155/69 116/156/69 114/154/68 
f 115/155/69 33/69/4 36/72/4 116/156/69 
s off
f 36/157/1 35/158/1 117/159/1 
f 35/158/1 38/160/1 117/159/1 
f 38/160/1 40/161/1 117/159/1 
f 40/161/1 42/162/1 117/159/1 
f 42/162/1 44/163/1 117/159/1 
f 44/163/1 46/164/1 117/159/1 
f 46/164/1 48/165/1 117/159/1 
f 48/165/1 50/166/1 117/159/1 
f 50/166/1 52/167/1 117/159/1 
f 52/167/1 54/168/1 117/159/1 
f 54/168/1 56/169/1 117/159/1 
f 56/169/1 58/170/1 117/159/1 
f 58/170/1 60/171/1 117/159/1 
f 60/171/1 62/172/1 117/159/1 
f 62/172/1 64/173/1 117/159/1 
f 64/173/1 66/174/1 117/159/1 
f 66/174/1 68/175/1 117/159/1 
f 68/175/1 70/176/1 117/159/1 
f 70/176/1 72/177/1 117/159/1 
f 72/177/1 74/178/1 117/159/1 
f 74/178/1 76/179/1 117/159/1 
f 76/179/1 78/180/1 117/159/1 
f 78/180/1 80/181/1 117/159/1 
f 80/181/1 82/182/1 117/159/1 
f 82/182/1 84/183/1 117/159/1 
f 84/183/1 86/184/1 117/159/1 
f 86/184/1 88/185/1 117/159/1 
f 88/185/1 90/186/1 117/159/1 
f 90/186/1 92/187/1 117/159/1 
f 92/187/1 94/188/1 117/159/1 
f 94/188/1 96/189/1 117/159/1 
f 96/189/1 98/190/1 117/159/1 
f 98/190/1 100/191/1 117/159/1 
f 100/191/1 102/192/1 117/159/1 
f 102/192/1 104/193/1 117/159/1 
f 104/193/1 106/194/1 117/159/1 
f 106/194/1 108/195/1 117/159/1 
f 108/195/1 110/196/1 117/159/1 
f 110/196/1 112/197/1 117/159/1 
f 112/197/1 114/198/1 117/159/1 
f 114/198/1 116/199/1 117/159/1 
f 116/199/1 36/157/1 117/159/1 
s 1
f 118/200/1 119/201/1 120/202/1 121/203/1 
s 2
f 122/204/70 123/205/70 119/201/70 118/200/70 
s 4
f 123/205/71 124/206/71 120/202/71 119/201/71 
s 2
f 124/206/72 125/207/72 121/203/72 120/202/72 
s 4
f 125/207/73 122/204/73 118/200/73 121/203/73 
s 1
f 126/208/1 127/209/1 128/210/1 129/211/1 
s 4
f 130/212/74 131/213/74 127/209/74 126/208/74 
s 2
f 131/213/75 132/214/75 128/210/75 127/209/75 
s 16
f 132/214/76 133/215/76 129/211/76 128/210/76 
s 8
f 133/215/77 130/212/77 126/208/77 129/211/77 
s off
f 33/157/78 134/159/78 34/158/78 
f 34/158/78 134/159/78 37/160/78 
f 37/160/78 134/159/78 39/161/78 
f 39/161/78 134/159/78 41/162/78 
f 41/162/78 134/159/78 43/163/78 
f 43/163/78 134/159/78 45/164/78 
f 45/164/78 134/159/78 47/165/78 
f 47/165/78 134/159/78 49/166/78 
f 49/166/78 134/159/78 51/167/78 
f 51/167/78 134/159/78 53/168/78 
f 53/168/78 134/159/78 55/169/78 
f 55/169/78 134/159/78 57/170/78 
f 57/170/78 134/159/78 59/171/78 
f 59/171/78 134/159/78 61/172/78 
f 61/172/78 134/159/78 63/173/78 
f 63/173/78 134/159/78 65/174/78 
f 65/174/78 134/159/78 67/175/78 
f 67/175/78 134/159/78 69/176/78 
f 69/176/78 134/159/78 71/177/78 
f 71/177/78 134/159/78 73/178/78 
f 73/178/78 134/159/78 75/179/78 
f 75/179/78 134/159/78 77/180/78 
f 77/180/78 134/159/78 79/181/78 
f 79/181/78 134/159/78 81/182/78 
f 81/182/78 134/159/78 83/183/78 
f 83/183/78 134/159/78 85/184/78 
f 85/184/78 134/159/78 87/185/78 
f 87/185/78 134/159/78 89/186/78 
f 89/186/78 134/159/78 91/187/78 
f 91/187/78 134/159/78 93/188/78 
f 93/188/78 134/159/78 95/189/78 
f 95/189/78 134/159/78 97/190/78 
f 97/190/78 134/159/78 99/191/78 
f 99/191/78 134/159/78 101/192/78 
f 101/192/78 134/159/78 103/193/78 
f 103/193/78 134/159/78 105/194/78 
f 105/194/78 134/159/78 107/195/78 
f 107/195/78 134/159/78 109/196/78 
f 109/196/78 134/159/78 111/197/78 
f 111/197/78 134/159/78 113/198/78 
f 113/198/78 134/159/78 115/199/78 
f 115/199/78 134/159/78 33/157/78 
s 128
f 11/216/78 9/217/78 6/218/78 5/219/78 
# 82 polygons - 84 triangles

